<?xml version="1.0" encoding="UTF-8"?>
<svg id="Layer_1" data-name="Layer 1" xmlns="http://www.w3.org/2000/svg" viewBox="0 0 613.54 600.49">
  <path d="M549.02,132.25c-27.12,2.21-36.78,22.28-37.67,33.23-.89,10.95,7.14,22.02,25.43,23.51,13.52,1.11,22.06-5.56,25.6-9.11,1.15-1.16,2.98-1.27,4.28-.28,1.36,1.04,1.7,2.95.76,4.38-4.05,6.17-16.27,20.68-38.68,14.6-32.53-8.82-27.97-31.43-27.97-31.43,0,0-14.23,10.87-36.5,8.72-18.21-1.75-23.38-12.61-20.23-14.44,3.15-1.82,8.46,4.81,25.7,5.97,17.24,1.16,32.56-12.72,33.01-25.49.45-12.76-6.47-30.07-38.18-30.44-32.14-.37-47.56,25.21-48.34,48.31-1.16,34.3,31.9,54.06,31.9,54.06,0,0-8.51,71.21-58.31,73.44-29.24,1.31-25.79-70.71-59.71-116.67-26.85-36.37-56.49-51.93-98.26-51.09-41.77.84-77.58,17.5-103.4,50.12-25.82,32.62-38.38,58.84-48.24,135.08-9.85,76.14-39.68,129.53-58.34,162.85-18.66,33.32-40.38,100.64,5.39,102.13,49.21,1.6,69.58-50.64,77.23-74.12,7.65-23.48,10.81-61.89,10.81-61.89,8.19,27.13-1.31,62.05-15.54,99.06,0,0,3.53,49.62,37.07,57.35,29.05,6.69,44.06-24.76,67.86-24.76s64.02,41.08,109.11,34.4c40.37-5.98,39.83-44.06,66.67-52.83,21.47-7.02,56.82,6.17,81.16,14.72,49.07,17.24,63.9,9.06,76.04-3.6,12.31-12.84,17.41-38.95-11.46-62.75-34.41-28.37-56.03-26.21-87.31-50.5-31.29-24.28-43.52-53.11-43.52-53.11,75.37,13.89,122.6-42.92,140.1-81.43,17.5-38.5,19.39-78.13,19.39-78.13,0,0,29.65-20.88,33.93-51.22,4.28-30.34-12.63-50.88-39.74-48.66ZM191.74,300.12c-18.33,0-33.2-22.08-33.2-49.32,0-27.24,14.86-49.32,33.2-49.32s33.2,22.08,33.2,49.32-14.86,49.32-33.2,49.32ZM279.25,295.36c-18.02,1-33.85-20.24-35.37-47.43-1.51-27.2,11.87-50.06,29.89-51.06,18.02-1,33.85,20.24,35.37,47.43,1.51,27.2-11.87,50.06-29.89,51.06Z"/>
  <path d="M592.91,20.55c-22.98-9.64-44.14,15.42-56.48,44.03-12.86,29.83-12.4,43.75-17.29,43.27-4.89-.49-7.07-3.52-.42-35.02,6.65-31.5,8.87-67.09-22.27-72.18-31.13-5.09-42.12,20.81-39.16,47.23,2.96,26.42,6.99,53.11,6.99,53.11,28.58,1.47,44.74,14.07,54.62,32.32,12.65-8.96,27.81-14.1,50.15-8.23,0,0,21.74-26.47,34.74-46.54,13-20.07,16.26-46.59-10.89-57.97Z"/>
  <ellipse cx="287.38" cy="241.73" rx="13.71" ry="22.3"/>
  <ellipse cx="203.13" cy="246.42" rx="13.71" ry="22.3"/>
</svg>